**ABCDEFGHIJKLMNOPQRSTUVWXYZabcdefghijklmnopqrstuvwxyz**************************
**PARASOLID !"#$%&'()*+,-./:;<=>?@[\]^_`{|}~0123456789**************************
**PART1;
MC=AMD64;
MC_MODEL=Intel64 Family 6 Model 60 Stepping 3, GenuineIntel;
MC_ID=unknown;
OS=Windows_NT;
OS_RELEASE=unknown;
FRU=Parasolid Version 32.1, build 230,  5-23-2020;
APPL=SOLIDWORKS 2021-2020273;
SITE=;
USER=unknown;
FORMAT=text;
GUISE=transmit;
KEY=baseplate;
FILE=baseplate.x_t;
DATE=Sat Apr 20 23:35:56 2024;
**PART2;
SCH=SCH_3201230_32001;
USFLD_SIZE=0;
**PART3;
**END_OF_HEADER*****************************************************************
T51 : TRANSMIT FILE created by modeller version 320123023 SCH_3201230_32001_1300
6229 0 12 34 CCCCCCI4 mesh1006 0 I8 polyline1008 0 CCCCCCCDI5 owner1040 0 CCCCCC
I13 boundary_mesh1006 0 I17 boundary_polyline1008 0 CCCA16 index_map_offset0 0 1
 dA9 index_map82 0 A17 node_id_index_map82 0 A20 schema_embedding_map82 0 A5 chi
ld12 0 A14 lowest_node_id0 0 1 dA16 mesh_offset_data206 0 Z1 759 2 3 0 0 0 0 0 0
 1e3 1e-8 0 4 0 1 0 1 1 5 6 7 8 0 0 9 10 11 0 0 0 0 0 0 0 81 255 2 2 737 12 1 13
 0 0 0 0 14 70 11 CI9 list_type0 0 1 uI10 notransmit0 0 1 lCCCDCCDI12 finger_ind
ex0 0 1 dI12 finger_block1012 0 CZ3 0 4 T1 0 0 10 20 1 15 15 13 255 5 60 0 1 0 1
6 0 0 17 0 51 255 6 59 0 18 19 0 0 --.0405 .024 .00500040978854401 0 0 -1 .0013
 -1 0 0 31 255 7 48 0 20 21 0 0 +-.0405 .024 0 0 0 1 1 0 0 .0024 29 255 8 332 0
 22 23 0 -.0467178545582846 -.02429693184140955 0 19 8 CCCCCCCA5 owner12 0 Z9 19
 0 1 17 0 24 V0 16 255 10 12 0 ?25 0 26 21 0 0 1 18 255 11 194 0 27 0 28 29 ?1 1
7 255 27 0 30 31 32 11 33 34 0 35 +18 28 183 0 36 11 37 38 ?1 29 29 340 0 11 38
 39 -.0467178545582846 -.02429693184140955 -.003 29 38 341 0 28 40 29 -.04671785
45582846 .0267030681585905 -.003 29 39 339 0 41 29 42 -.0437178545582846 -.02729
69318414095 0 18 41 193 0 43 44 0 39 ?1 29 42 338 0 44 39 45 .04028214544171535
 -.02729693184140955 0 18 44 192 0 46 47 41 42 ?1 29 45 337 0 47 42 48 .04328214
54417154 -.02429693184140955 0 18 47 189 0 49 50 44 45 ?1 29 48 336 0 50 45 51 .
0432821454417154 .0267030681585905 0 18 50 190 0 52 53 47 48 ?1 29 51 335 0 53 4
8 54 .04028214544171535 .0297030681585905 0 18 53 188 0 55 56 50 51 ?1 29 54 334
 0 56 51 23 -.0437178545582846 .0297030681585905 0 18 56 185 0 57 58 53 54 ?1 29
 23 333 0 58 54 8 -.0467178545582846 .0267030681585905 0 18 58 186 0 59 22 56 23
 ?1 17 59 0 60 57 61 58 36 62 0 63 +18 22 184 0 64 65 58 8 ?1 17 64 0 66 67 68 2
2 35 69 0 70 +18 65 191 0 71 72 22 73 ?1 17 71 0 74 75 76 65 43 77 0 33 -18 72 1
98 0 78 79 65 80 ?1 29 73 347 0 65 0 80 -.0437178545582846 -.0272969318414095 -.
003 29 80 346 0 72 73 81 .04028214544171535 -.02729693184140955 -.003 29 81 345
 0 79 80 82 .0432821454417154 -.02429693184140955 -.003 18 79 197 0 83 84 72 81
 ?1 29 82 344 0 84 81 85 .0432821454417154 .0267030681585905 -.003 18 84 187 0 8
6 87 79 82 ?1 29 85 343 0 87 82 40 .04028214544171535 .0297030681585905 -.003 18
 87 196 0 88 37 84 85 ?1 29 40 342 0 37 85 38 -.0437178545582846 .02970306815859
05 -.003 18 37 195 0 89 28 87 40 ?1 17 89 0 30 88 31 37 61 90 0 91 +15 255 30 25
9 0 27 92 93 17 88 0 30 94 89 87 95 96 0 97 +17 31 0 30 89 27 28 68 98 0 0 -17 6
1 0 60 59 91 28 89 90 0 31 -16 90 147 0 ?89 98 96 99 0 0 1 17 91 0 60 61 57 37 1
00 101 0 95 -15 60 215 0 57 102 0 17 57 0 60 91 59 56 63 103 0 100 +17 100 0 104
 105 95 56 91 101 0 106 +16 101 114 0 ?100 62 107 108 0 0 1 17 95 0 104 100 97 3
7 88 96 0 0 -15 104 219 0 105 109 0 17 97 0 104 95 105 87 55 107 0 110 -16 96 15
0 0 ?88 90 111 112 0 0 1 16 111 115 0 ?110 96 113 114 0 0 1 30 255 112 326 0 96
 114 99 0 +-1226824039124906e-33 .0297030681585905 -.003 1 413029399042097e-31 0
 31 114 327 0 111 115 112 0 +.04028214544171535 .0267030681585905 -.003 0 0 1 1
 0 0 .003 31 99 325 0 90 112 116 0 --.04371785455828465 .0267030681585905 -.003
 0 0 1 1 0 0 .003 30 116 324 0 98 99 117 0 +-.0467178545582846 -635627914113933e
-32 -.003 1360567432138672e-31 -1 0 16 98 103 0 ?68 77 90 116 0 0 1 31 117 323 0
 118 116 119 0 --.0437178545582846 -.02429693184140955 0 0 0 1 1 0 0 .003 16 118
 131 0 ?70 120 121 117 0 0 1 30 119 322 0 120 117 122 0 +-225488707083009e-32 -.
02729693184140955 0 1 -826058798084194e-31 0 16 120 135 0 ?123 124 118 119 0 0 1
 31 122 321 0 124 119 125 0 -.0402821454417154 -.02429693184140955 0 0 0 1 1 0 0
 .003 16 124 123 0 ?126 127 120 122 0 0 1 30 125 320 0 127 122 128 0 +.043282145
4417154 588882774810872e-32 0 1360567432138672e-31 -1 0 16 127 119 0 ?49 129 124
 125 0 0 1 31 128 319 0 129 125 130 0 +.04028214544171535 .0267030681585905 0 0
 0 1 1 0 0 .003 16 129 138 0 ?131 132 127 128 0 0 1 30 130 318 0 132 128 133 0 +
-1226824039124906e-33 .0297030681585905 0 1 413029399042097e-31 0 16 132 111 0 ?
105 103 129 130 0 0 1 31 133 317 0 103 130 134 0 --.04371785455828465 .026703068
1585905 0 0 0 1 1 0 0 .003 16 103 107 0 ?57 135 132 133 0 0 1 30 134 316 0 135 1
33 136 0 +-.0467178545582846 -635627914113933e-32 0 1360567432138672e-31 -1 0 16
 135 141 0 ?137 34 103 134 0 0 1 30 136 315 0 69 134 138 0 +-.0467178545582846 -
.02429693184140955 -.003 0 0 1 16 69 106 0 ?64 20 62 136 0 0 1 30 138 314 0 62 1
36 108 0 +-.0467178545582846 .0267030681585905 -.003 0 0 1 16 62 110 0 ?59 69 10
1 138 0 0 1 30 108 313 0 101 138 139 0 +-.0437178545582846 .0297030681585905 -.0
03 0 0 1 30 139 312 0 107 108 140 0 +.04028214544171535 .0297030681585905 -.003
 0 0 1 16 107 118 0 ?55 101 141 139 0 0 1 30 140 311 0 141 139 142 0 +.043282145
4417154 .0267030681585905 -.003 0 0 1 16 141 122 0 ?52 107 143 140 0 0 1 30 142
 310 0 143 140 144 0 +.0432821454417154 -.02429693184140955 -.003 0 0 1 16 143 1
26 0 ?145 141 146 142 0 0 1 30 144 309 0 146 142 147 0 +.04028214544171535 -.027
29693184140955 -.003 0 0 1 16 146 130 0 ?46 143 77 144 0 0 1 30 147 308 0 77 144
 148 0 +-.0437178545582846 -.0272969318414095 -.003 0 0 1 16 77 134 0 ?43 146 98
 147 0 0 1 31 148 307 0 121 147 149 0 +-.0405 .024 -.003 0 0 1 1 0 0 .0013 16 12
1 165 0 ?150 118 151 148 0 0 1 31 149 305 0 151 148 152 0 +-.0405 -.022 -.003 0
 0 1 1 0 0 .0013 16 151 168 0 ?153 121 154 149 0 0 1 31 152 303 0 154 149 155 0
 +.037 .024 -.003 0 0 1 1 0 0 .0013 16 154 159 0 ?156 151 157 152 0 0 1 31 155 3
01 0 157 152 158 0 +.037 -.022 -.003 0 0 1 1 0 0 .0013 16 157 162 0 ?159 154 160
 155 0 0 1 31 158 9 0 26 155 21 0 +-.0405 .024 .00500040978854401 0 0 1 1 0 0 .0
013 16 26 7 0 ?161 10 20 158 0 0 1 31 21 14 0 10 158 7 0 +-.0405 .024 .005000409
78854401 0 0 1 1 0 0 .0024 17 161 0 162 161 161 0 163 26 0 0 +16 20 102 0 ?164 2
6 69 7 0 0 1 17 164 0 165 164 164 0 166 20 0 0 +15 165 52 0 164 167 0 17 166 0 1
68 166 166 0 164 20 0 0 -15 168 247 0 166 16 169 14 255 16 457 170 ?18 0 171 5 1
72 +0 0 18 0 24 15 169 356 0 173 16 174 17 173 0 169 173 173 0 175 176 0 0 -15 1
74 405 0 177 16 178 17 177 0 174 177 177 0 179 180 0 0 -15 178 454 0 181 16 0 17
 181 0 178 181 181 0 182 183 0 0 -17 182 0 184 182 182 0 181 183 0 0 +16 183 467
 0 ?182 185 186 187 0 0 1 16 185 465 0 ?188 180 183 189 0 0 1 16 186 468 0 ?190
 183 0 191 0 0 1 31 187 491 0 183 189 192 0 +-.0405 -.022 0 0 0 1 1 0 0 .0024 31
 189 492 0 185 191 187 0 +-.0405 -.022 .005 0 0 1 1 0 0 .0024 31 192 445 0 193 1
87 194 0 +.037 -.022 .005 0 0 1 1 0 0 .0013 16 193 416 0 ?195 196 180 192 0 0 1
 31 194 444 0 196 192 197 0 +.037 -.022 .005 0 0 1 1 0 0 .0024 16 196 418 0 ?198
 176 193 194 0 0 1 31 197 442 0 180 194 199 0 +.037 -.022 0 0 0 1 1 0 0 .0024 16
 180 417 0 ?179 193 185 197 0 0 1 31 199 396 0 200 197 201 0 +.037 .024 .005 0 0
 1 1 0 0 .0013 16 200 367 0 ?202 160 176 199 0 0 1 31 201 395 0 160 199 203 0 +.
037 .024 .005 0 0 1 1 0 0 .0024 16 160 369 0 ?204 157 200 201 0 0 1 31 203 393 0
 176 201 205 0 +.037 .024 0 0 0 1 1 0 0 .0024 16 176 368 0 ?175 200 196 203 0 0
 1 31 205 331 0 34 203 206 0 --.0437178545582846 -.02429693184140955 -.003 0 0 1
 1 0 0 .003 16 34 144 0 ?27 207 135 205 0 0 1 30 206 330 0 207 205 208 0 +-22548
8707083009e-32 -.02729693184140955 -.003 1 -826058798084194e-31 0 16 207 127 0 ?
75 209 34 206 0 0 1 31 208 329 0 209 206 115 0 -.0402821454417154 -.024296931841
40955 -.003 0 0 1 1 0 0 .003 16 209 156 0 ?78 113 207 208 0 0 1 30 115 328 0 113
 208 114 0 +.0432821454417154 588882774810872e-32 -.003 1360567432138672e-31 -1
 0 16 113 153 0 ?83 111 209 115 0 0 1 17 83 0 30 78 94 79 210 113 0 211 +17 78 0
 30 32 83 72 212 209 0 213 +17 94 0 30 83 88 84 110 111 0 0 -17 210 0 214 52 211
 84 83 113 0 94 -17 211 0 214 210 49 79 145 143 0 212 -15 214 227 0 49 215 0 17
 49 0 214 211 52 47 216 127 0 145 +17 145 0 217 126 212 47 211 143 0 218 +17 212
 0 217 145 213 79 78 209 0 0 -15 217 231 0 126 219 0 17 213 0 217 212 126 72 46
 146 0 75 -17 126 0 217 213 145 44 218 124 0 123 +17 46 0 74 76 75 44 213 146 0
 126 +17 75 0 74 46 71 72 32 207 0 0 +15 74 235 0 76 220 0 17 32 0 30 27 78 65 7
5 207 0 0 -17 76 0 74 71 46 41 123 120 0 0 -14 220 232 221 ?222 219 74 5 223 +0
 0 222 219 24 81 1 221 739 224 220 225 0 170 226 227 14 222 236 226 ?92 220 228
 5 229 -0 0 92 220 24 14 219 228 230 ?220 215 217 5 231 -0 0 220 215 24 50 255 2
23 291 0 220 231 229 0 +-225488707083009e-32 -.02729693184140955 -.003 -82605879
8084194e-31 -1 0 1 -826058798084194e-31 0 13 24 20 0 0 0 0 0 0 9 16 51 231 292 0
 219 232 223 0 -.0402821454417154 -.02429693184140955 -.003 0 0 1 .003 1 0 0 51
 229 290 0 222 223 233 0 --.0437178545582846 -.02429693184140955 -.003 0 0 1 .00
3 1 0 0 51 233 288 0 234 229 235 0 +-.0405 -.022 -.003 0 0 1 .0013 1 0 0 14 234
 274 236 ?237 238 239 5 233 -0 0 237 238 24 51 235 287 0 238 233 240 0 +.037 .02
4 -.003 0 0 1 .0013 1 0 0 14 238 269 241 ?234 242 243 5 235 -0 0 234 92 24 51 24
0 286 0 242 235 244 0 +.037 -.022 -.003 0 0 1 .0013 1 0 0 14 242 264 245 ?238 92
 246 5 240 -0 0 247 248 24 50 244 3 0 248 240 19 0 +0 0 .00500040978854401 0 0 1
 1 0 0 14 248 1 249 ?247 167 250 5 244 +0 0 242 167 24 51 19 58 0 167 244 6 0 --
.0405 .024 .00500040978854401 0 0 -1 .0024 -1 0 0 14 167 51 251 ?248 18 252 5 19
 -0 0 248 18 24 81 1 251 746 224 167 253 0 249 254 255 14 18 55 254 ?167 16 162
 5 6 +0 0 167 16 24 15 252 50 0 256 167 165 17 256 0 252 256 256 0 25 10 0 0 -17
 25 0 257 25 25 0 256 10 0 0 +15 257 6 0 25 248 0 81 1 254 747 224 18 258 0 251
 259 260 15 162 54 0 161 18 261 15 261 282 0 262 18 0 17 262 0 261 262 262 0 150
 121 0 0 -17 150 0 263 150 150 0 262 121 0 0 +15 263 262 0 150 92 264 14 92 252
 259 ?242 222 30 5 265 -0 0 238 222 24 15 264 263 0 153 92 0 17 153 0 264 153 15
3 0 266 151 0 0 +17 266 0 239 266 266 0 153 151 0 0 -15 239 277 0 266 234 267 15
 267 483 0 190 234 0 17 190 0 267 190 190 0 268 186 0 0 +17 268 0 269 268 268 0
 190 186 0 0 -15 269 472 0 268 270 0 14 270 469 271 ?272 273 274 5 275 +0 0 272
 273 24 81 1 271 749 224 270 276 0 259 277 278 14 272 477 277 ?0 270 279 5 280 -
0 0 0 270 24 14 273 428 281 ?270 282 283 5 284 +0 0 270 282 24 15 274 471 0 188
 270 269 50 275 489 0 270 0 280 0 +-.0405 -.022 .005 0 0 1 1 0 0 51 280 487 0 27
2 275 284 0 --.0405 -.022 .005 0 0 -1 .0024 -1 0 0 50 284 441 0 273 280 285 0 +0
 0 .005 0 0 1 1 0 0 51 285 439 0 282 284 286 0 -.037 -.022 .005 0 0 -1 .0024 -1
 0 0 14 282 424 287 ?273 288 289 5 285 -0 0 273 288 24 50 286 392 0 288 285 290
 0 +0 0 .005 0 0 1 1 0 0 14 288 379 291 ?282 237 292 5 286 +0 0 282 237 24 51 29
0 390 0 237 286 265 0 -.037 .024 .005 0 0 -1 .0024 -1 0 0 14 237 375 293 ?288 23
4 294 5 290 -0 0 288 234 24 50 265 299 0 92 290 172 0 +0 0 -.003 0 0 1 1 0 0 50
 172 298 0 16 265 295 0 +0 0 0 0 0 1 1 0 0 50 295 297 0 247 172 296 0 +-.0467178
545582846 -635627914113933e-32 -.003 -1 -1360567432138672e-31 0 1360567432138672
e-31 -1 0 14 247 208 297 ?102 248 66 5 295 +0 0 102 242 24 51 296 296 0 102 295
 298 0 --.04371785455828465 .0267030681585905 -.003 0 0 1 .003 1 0 0 14 102 212
 299 ?109 247 60 5 296 -0 0 109 247 24 50 298 295 0 109 296 300 0 +-122682403912
4906e-33 .0297030681585905 -.003 413029399042097e-31 -1 0 1 413029399042097e-31
 0 14 109 216 301 ?302 102 104 5 298 -0 0 302 102 24 51 300 294 0 302 298 232 0
 +.04028214544171535 .0267030681585905 -.003 0 0 1 .003 1 0 0 14 302 220 303 ?21
5 109 304 5 300 +0 0 215 109 24 50 232 293 0 215 300 231 0 +.0432821454417154 58
8882774810872e-32 -.003 -1 -1360567432138672e-31 0 1360567432138672e-31 -1 0 14
 215 224 305 ?219 302 214 5 232 -0 0 219 302 24 81 1 305 759 224 215 306 0 303 0
 307 80 255 1 224 308 309 9000 1 1 1 1 1 1 1 1 0 FFFFTFTFFFFFFF1 81 1 306 666 31
0 215 0 305 311 312 313 81 1 303 758 224 302 311 0 301 305 314 82 255 1 307 -118
7446426 81 1 311 665 310 302 0 303 315 306 316 81 1 301 757 224 109 315 0 299 30
3 317 82 1 314 -1187577498 81 1 315 664 310 109 0 301 318 311 319 81 1 299 756 2
24 102 318 0 297 301 320 82 1 317 -1187708570 81 1 318 663 310 102 0 299 321 315
 322 81 1 297 755 224 247 321 0 293 299 323 82 1 320 -1188101786 81 1 321 662 31
0 247 0 297 324 318 325 81 1 293 754 224 237 326 0 291 297 327 82 1 323 -1188232
858 81 1 326 674 310 237 0 293 328 329 330 81 1 291 753 224 288 329 0 287 293 33
1 82 1 327 -1172373146 81 1 329 675 310 288 0 291 326 332 333 81 1 287 752 224 2
82 332 0 281 291 334 82 1 331 -1172766362 81 1 332 676 310 282 0 287 329 335 336
 81 1 281 751 224 273 335 0 277 287 337 82 1 334 -1166802586 81 1 335 677 310 27
3 0 281 332 276 338 81 1 277 750 224 272 339 0 271 281 340 82 1 337 -1167195802
 81 1 339 679 310 272 0 277 276 0 341 82 1 340 -1161166490 80 1 310 0 342 8001 0
 0 0 0 3 5 0 0 0 FFFFTFTFFFFFFF2 81 1 276 678 310 270 0 271 335 339 343 83 255 3
 341 1 1 1 83 3 343 1 1 1 79 255 15 342 SDL/TYSA_COLOUR83 3 338 1 1 1 83 3 336 1
 1 1 83 3 333 1 1 1 81 1 328 673 310 234 0 236 344 326 345 83 3 330 1 1 1 81 1 2
36 742 224 234 328 0 230 241 346 81 1 344 672 310 238 0 241 347 328 348 83 3 345
 1 1 1 81 1 241 743 224 238 344 0 236 245 349 81 1 347 671 310 242 0 245 350 344
 351 83 3 348 1 1 1 81 1 245 744 224 242 347 0 241 249 352 81 1 350 670 310 92 0
 259 353 347 354 83 3 351 1 1 1 81 1 259 748 224 92 350 0 254 271 355 81 1 353 6
69 310 222 0 226 225 350 356 83 3 354 1 1 1 81 1 226 740 224 222 353 0 221 230 3
57 81 1 225 668 310 220 0 221 312 353 358 83 3 356 1 1 1 81 1 312 667 310 219 0
 230 306 225 359 83 3 358 1 1 1 81 1 230 741 224 219 312 0 226 236 360 83 3 359
 1 1 1 82 1 360 -1187315354 82 1 357 -1187053210 82 1 355 -1188363930 81 1 249 7
45 224 248 324 0 245 251 361 82 1 352 -1188495002 81 1 324 661 310 248 0 249 253
 321 362 82 1 361 652149089 81 1 253 660 310 167 0 251 258 324 363 83 3 362 1 1
 1 81 1 258 659 310 18 0 254 364 253 365 83 3 363 1 1 1 81 1 364 658 310 16 0 17
0 0 258 366 83 3 365 1 1 1 81 1 170 738 224 16 364 0 0 221 367 83 3 366 1 1 1 82
 1 367 -1158479514 82 1 349 -1188757146 82 1 346 -1188953754 83 3 325 1 1 1 83 3
 322 1 1 1 83 3 319 1 1 1 83 3 316 1 1 1 83 3 313 1 1 1 79 14 309 SWEntUnchanged
15 304 223 0 368 302 0 17 368 0 304 86 55 50 131 129 0 0 -17 86 0 304 110 368 84
 52 141 0 210 -17 55 0 304 368 110 53 97 107 0 105 +17 131 0 171 106 216 53 368
 129 0 0 +15 171 248 0 369 16 168 17 106 0 171 63 131 56 105 132 0 0 -17 216 0 1
71 131 218 50 49 127 0 368 -17 218 0 171 216 123 47 126 124 0 0 -17 123 0 171 21
8 369 44 76 120 0 0 +17 369 0 171 123 137 41 70 118 0 76 -17 137 0 171 369 63 22
 67 135 0 0 +17 70 0 228 35 43 22 369 118 0 137 +15 228 239 0 70 222 0 17 35 0 2
28 33 70 11 64 69 0 68 -17 43 0 228 70 33 41 71 77 0 369 +17 33 0 228 43 35 65 2
7 34 0 32 -17 68 0 66 64 36 11 31 98 0 0 +15 66 211 0 67 247 0 17 36 0 66 68 67
 28 59 62 0 61 -17 67 0 66 36 64 58 137 135 0 0 -17 63 0 171 137 106 58 57 103 0
 67 -17 105 0 104 97 100 53 106 132 0 131 +17 110 0 304 55 86 87 94 111 0 0 +17
 52 0 214 49 210 50 86 141 0 216 +15 294 377 0 370 237 371 17 370 0 294 370 370
 0 204 160 0 0 -15 371 378 0 175 237 0 17 175 0 371 175 175 0 173 176 0 0 +17 20
4 0 372 204 204 0 370 160 0 0 +15 372 382 0 204 288 0 15 292 381 0 373 288 372 1
7 373 0 292 373 373 0 202 200 0 0 -17 202 0 374 202 202 0 373 200 0 0 +15 374 37
3 0 202 238 0 15 289 426 0 375 282 376 17 375 0 289 375 375 0 198 196 0 0 -15 37
6 427 0 179 282 0 17 179 0 376 179 179 0 177 180 0 0 +17 198 0 377 198 198 0 375
 196 0 0 +15 377 431 0 198 273 0 17 188 0 274 188 188 0 378 185 0 0 +17 378 0 27
9 378 378 0 188 185 0 0 -15 279 479 0 378 272 184 15 184 480 0 182 272 0 15 283
 430 0 379 273 377 17 379 0 283 379 379 0 195 193 0 0 -17 195 0 380 195 195 0 37
9 193 0 0 +15 380 422 0 195 242 0 82 1 278 -1161821850 82 1 260 656408934 82 1 2
55 656015713 15 250 5 0 163 248 257 17 163 0 250 163 163 0 161 26 0 0 -15 246 26
7 0 381 242 380 17 381 0 246 381 381 0 159 157 0 0 -17 159 0 382 159 159 0 381 1
57 0 0 +15 382 261 0 159 92 263 15 243 272 0 383 238 374 17 383 0 243 383 383 0
 156 154 0 0 -17 156 0 93 156 156 0 383 154 0 0 +15 93 260 0 156 92 382 82 1 227
 -1187184282 31 191 494 0 186 0 189 0 +-.0405 -.022 .005 0 0 1 1 0 0 .0013 19 17
 61 0 1 0 9 5 S0 74 4 CI16 index_map_offset0 0 1 dCCZ20 15 10 0 0 384 305 385 38
6 387 388 389 13 339 2 0 0 0 0 0 0 0 0 0 0 81 5 384 18 390 1 0 385 0 0 391 0 0 0
 0 81 2 385 501 392 1 384 386 0 0 0 393 81 2 386 525 394 1 385 387 0 0 0 395 81
 1 387 546 396 1 386 388 0 0 397 81 2 388 548 398 1 387 389 0 0 0 0 81 2 389 572
 399 1 388 13 0 0 400 0 81 2 13 657 401 1 389 2 0 0 0 402 80 2 401 403 404 9000
 0 0 0 0 3 5 0 0 0 FFTFFFFFFFFFFF9 1 82 1 402 1 79 24 404 BODY_IN_LIGHTWEIGHT_PE
RM80 2 399 405 406 8004 0 0 0 0 3 5 0 0 0 FFTFFFFFFFFFFF2 3 83 1 400 1e3 79 16 4
06 SDL/TYSA_DENSITY80 2 398 407 408 9000 0 0 0 0 3 5 0 0 0 FFTFFFFFFFFFFF9 1 79
 16 408 BODY_RECIPE_200180 1 396 409 410 9000 1 1 1 1 1 1 1 1 0 FFTFFFFFFFFFFF1
 82 1 397 4400861 79 10 410 BODY_MATCH80 2 394 411 412 9000 0 0 0 0 3 5 0 0 0 FF
TFFFFFFFFFFF9 1 82 1 395 256 79 30 412 LAST_BODY_MODIFYING_FEATURE_ID80 2 392 41
3 414 9000 0 0 0 0 3 5 0 0 0 FFTFFFFFFFFFFF9 1 82 1 393 283 79 19 414 ENT_TIME_S
TAMP_200180 5 390 415 416 9000 0 0 0 0 3 6 0 0 0 FFTTTTTTFTTFTT2 2 2 2 2 83 1 39
1 1 79 19 416 BODY_SCALING_FACTOR80 2 12 417 418 9000 0 0 0 0 3 5 0 0 0 FFTFFFFF
FFFFFF9 1 82 1 14 116 79 12 418 ATOM_ID_20011 0 
